<?xml version="1.0" encoding="UTF-8"?>
<svg xmlns="http://www.w3.org/2000/svg" viewBox="0 0 108 108">
  <rect width="108" height="108" fill="#F2CDD9"/>
  <path fill="#E3AEAE" fill-rule="evenodd" d="M 47.25,40.94 45.12,40.31 41.81,40.25 28.56,42.69 33.75,69.44 40.62,68.12 38.62,58.06 42.31,57.50 43.50,57.81 44.44,58.44 50.56,66.19 57.88,64.75 52.62,57.81 50.44,55.44 48.94,54.44 47.00,53.94 48.69,52.75 49.88,51.44 50.69,49.69 50.94,48.12 50.69,45.75 49.75,43.25 48.44,41.69 Z M 42.88,46.12 43.50,46.81 43.81,47.44 44.00,48.00 44.00,48.19 44.06,48.25 44.06,48.50 44.12,48.56 44.19,49.94 44.12,50.00 44.12,50.31 44.00,50.69 43.69,51.25 43.19,51.75 42.81,52.00 42.00,52.38 41.44,52.56 41.00,52.62 40.94,52.69 40.69,52.69 40.31,52.81 40.00,52.81 39.94,52.88 39.69,52.88 39.62,52.94 39.38,52.94 39.31,53.00 39.06,53.00 39.00,53.06 38.75,53.06 38.38,53.19 37.75,53.25 37.62,52.94 37.62,52.69 37.50,52.31 37.50,52.00 37.44,51.94 37.44,51.69 37.38,51.62 37.38,51.38 37.31,51.31 37.31,51.06 37.25,51.00 37.25,50.75 37.19,50.69 37.19,50.44 37.06,50.06 37.06,49.75 37.00,49.69 37.00,49.44 36.94,49.38 36.94,49.12 36.88,49.06 36.88,48.81 36.81,48.75 36.81,48.50 36.75,48.44 36.75,48.19 36.62,47.81 36.62,47.50 36.56,47.44 36.56,47.19 36.50,47.12 36.50,46.88 36.44,46.81 36.44,46.56 36.38,46.44 36.50,46.31 36.69,46.31 36.75,46.25 37.06,46.25 37.12,46.19 37.38,46.19 37.44,46.12 37.69,46.12 37.75,46.06 38.00,46.06 38.06,46.00 38.31,46.00 38.38,45.94 38.62,45.94 39.00,45.81 39.31,45.81 39.69,45.69 40.06,45.69 40.12,45.62 41.62,45.62 41.69,45.69 42.31,45.81 Z"/>
  <path fill="#D99A9A" fill-rule="evenodd" d="M 55.62,38.31 50.44,65.06 60.12,66.94 64.75,67.44 68.69,67.12 70.81,66.44 72.50,65.56 74.25,64.25 76.12,62.06 77.31,59.81 78.19,56.94 78.56,54.31 78.50,51.75 77.81,48.94 76.94,47.12 74.75,44.38 72.69,42.81 71.12,42.00 65.75,40.31 Z M 61.56,44.81 65.69,45.69 67.94,46.69 69.06,47.50 70.06,48.56 70.88,50.00 71.19,50.94 71.38,52.00 71.31,54.44 70.94,56.25 70.00,58.50 69.25,59.56 68.12,60.62 66.69,61.44 65.50,61.81 64.31,62.00 62.50,62.00 59.12,61.44 58.31,61.19 61.19,46.25 Z"/>
</svg>
